<mxfile host="app.diagrams.net" agent="Mozilla/5.0 (Windows NT 10.0; Win64; x64) AppleWebKit/537.36 (KHTML, like Gecko) Chrome/139.0.0.0 Safari/537.36" version="28.1.0">
  <diagram name="Page-1" id="TxnYDXRb0Q60wTVX8WxU">
    <mxGraphModel dx="1426" dy="757" grid="1" gridSize="10" guides="1" tooltips="1" connect="1" arrows="0" fold="1" page="1" pageScale="1" pageWidth="850" pageHeight="1100" math="0" shadow="0">
      <root>
        <mxCell id="0" />
        <mxCell id="1" parent="0" />
        <mxCell id="opugYcU80OSQHxM44j0D-1" value="" style="rounded=0;whiteSpace=wrap;html=1;dashed=1;dashPattern=1 2;fillColor=none;" parent="1" vertex="1">
          <mxGeometry x="42.75" y="72.5" width="120" height="325" as="geometry" />
        </mxCell>
        <mxCell id="opugYcU80OSQHxM44j0D-2" value="Sources" style="rounded=1;whiteSpace=wrap;html=1;" parent="1" vertex="1">
          <mxGeometry x="62.75" y="42.5" width="80" height="30" as="geometry" />
        </mxCell>
        <mxCell id="opugYcU80OSQHxM44j0D-3" value="&lt;b&gt;CRM&lt;/b&gt;" style="image;aspect=fixed;html=1;points=[];align=center;fontSize=12;image=img/lib/azure2/general/Folder_Blank.svg;" parent="1" vertex="1">
          <mxGeometry x="76.72999999999999" y="135.76999999999998" width="54.5" height="44.23" as="geometry" />
        </mxCell>
        <mxCell id="opugYcU80OSQHxM44j0D-4" value="&lt;b&gt;ERP&lt;/b&gt;" style="image;aspect=fixed;html=1;points=[];align=center;fontSize=12;image=img/lib/azure2/general/Folder_Blank.svg;" parent="1" vertex="1">
          <mxGeometry x="76.73" y="280" width="52.03" height="42.23" as="geometry" />
        </mxCell>
        <mxCell id="opugYcU80OSQHxM44j0D-6" value="" style="rounded=1;whiteSpace=wrap;html=1;fillColor=none;strokeColor=light-dark(#FFCE9F,#EDEDED);" parent="1" vertex="1">
          <mxGeometry x="230" y="80" width="140" height="310" as="geometry" />
        </mxCell>
        <mxCell id="opugYcU80OSQHxM44j0D-7" value="&lt;b&gt;&lt;font style=&quot;font-size: 16px;&quot;&gt;Bronze Layer&lt;/font&gt;&lt;/b&gt;" style="rounded=1;whiteSpace=wrap;html=1;fillColor=#fff2cc;strokeColor=#d6b656;" parent="1" vertex="1">
          <mxGeometry x="240" y="40" width="120" height="30" as="geometry" />
        </mxCell>
        <mxCell id="opugYcU80OSQHxM44j0D-8" value="crm_sales_details" style="rounded=1;whiteSpace=wrap;html=1;fillColor=#fff2cc;strokeColor=#d6b656;" parent="1" vertex="1">
          <mxGeometry x="240" y="100" width="120" height="30" as="geometry" />
        </mxCell>
        <mxCell id="opugYcU80OSQHxM44j0D-9" value="crm_cust_info" style="rounded=1;whiteSpace=wrap;html=1;fillColor=#fff2cc;strokeColor=#d6b656;" parent="1" vertex="1">
          <mxGeometry x="240" y="140" width="120" height="30" as="geometry" />
        </mxCell>
        <mxCell id="opugYcU80OSQHxM44j0D-10" value="crm_prod_info" style="rounded=1;whiteSpace=wrap;html=1;fillColor=#fff2cc;strokeColor=#d6b656;" parent="1" vertex="1">
          <mxGeometry x="240" y="180" width="120" height="30" as="geometry" />
        </mxCell>
        <mxCell id="opugYcU80OSQHxM44j0D-12" value="erp_cust_az12" style="rounded=1;whiteSpace=wrap;html=1;fillColor=#fff2cc;strokeColor=#d6b656;" parent="1" vertex="1">
          <mxGeometry x="240" y="250" width="120" height="30" as="geometry" />
        </mxCell>
        <mxCell id="opugYcU80OSQHxM44j0D-13" value="erp_loc_a101" style="rounded=1;whiteSpace=wrap;html=1;fillColor=#fff2cc;strokeColor=#d6b656;" parent="1" vertex="1">
          <mxGeometry x="240" y="290" width="120" height="30" as="geometry" />
        </mxCell>
        <mxCell id="opugYcU80OSQHxM44j0D-14" value="erp_px_cat_g1v2" style="rounded=1;whiteSpace=wrap;html=1;fillColor=#fff2cc;strokeColor=#d6b656;" parent="1" vertex="1">
          <mxGeometry x="240" y="330" width="120" height="30" as="geometry" />
        </mxCell>
        <mxCell id="opugYcU80OSQHxM44j0D-22" value="&lt;b&gt;&lt;font style=&quot;font-size: 24px;&quot;&gt;Data Flow Diagram&lt;/font&gt;&lt;/b&gt;" style="text;strokeColor=none;align=center;fillColor=none;html=1;verticalAlign=middle;whiteSpace=wrap;rounded=0;" parent="1" vertex="1">
          <mxGeometry x="190" y="10" width="250" height="10" as="geometry" />
        </mxCell>
        <mxCell id="opugYcU80OSQHxM44j0D-23" value="" style="edgeStyle=elbowEdgeStyle;elbow=horizontal;endArrow=classic;html=1;curved=0;rounded=0;endSize=8;startSize=8;entryX=0.019;entryY=0.11;entryDx=0;entryDy=0;entryPerimeter=0;exitX=1.014;exitY=0.457;exitDx=0;exitDy=0;exitPerimeter=0;" parent="1" target="opugYcU80OSQHxM44j0D-6" edge="1" source="opugYcU80OSQHxM44j0D-3">
          <mxGeometry width="50" height="50" relative="1" as="geometry">
            <mxPoint x="140" y="130" as="sourcePoint" />
            <mxPoint x="251.51" y="113.64999999999998" as="targetPoint" />
            <Array as="points">
              <mxPoint x="201.51" y="135.76999999999998" />
              <mxPoint x="241.51" y="125.76999999999998" />
            </Array>
          </mxGeometry>
        </mxCell>
        <mxCell id="opugYcU80OSQHxM44j0D-24" value="" style="edgeStyle=elbowEdgeStyle;elbow=horizontal;endArrow=classic;html=1;curved=0;rounded=0;endSize=8;startSize=8;entryX=0;entryY=0.5;entryDx=0;entryDy=0;" parent="1" target="opugYcU80OSQHxM44j0D-9" edge="1">
          <mxGeometry width="50" height="50" relative="1" as="geometry">
            <mxPoint x="140" y="155" as="sourcePoint" />
            <mxPoint x="230" y="160" as="targetPoint" />
            <Array as="points">
              <mxPoint x="130" y="150" />
              <mxPoint x="190" y="160" />
              <mxPoint x="288.76" y="172.12" />
            </Array>
          </mxGeometry>
        </mxCell>
        <mxCell id="opugYcU80OSQHxM44j0D-25" value="" style="edgeStyle=elbowEdgeStyle;elbow=horizontal;endArrow=classic;html=1;curved=0;rounded=0;endSize=8;startSize=8;entryX=0;entryY=0.5;entryDx=0;entryDy=0;" parent="1" target="opugYcU80OSQHxM44j0D-10" edge="1">
          <mxGeometry width="50" height="50" relative="1" as="geometry">
            <mxPoint x="130" y="154" as="sourcePoint" />
            <mxPoint x="240" y="155" as="targetPoint" />
            <Array as="points">
              <mxPoint x="140" y="150" />
              <mxPoint x="190" y="170" />
              <mxPoint x="288.76" y="172.12" />
            </Array>
          </mxGeometry>
        </mxCell>
        <mxCell id="opugYcU80OSQHxM44j0D-26" value="" style="edgeStyle=elbowEdgeStyle;elbow=horizontal;endArrow=classic;html=1;curved=0;rounded=0;endSize=8;startSize=8;entryX=0;entryY=0.5;entryDx=0;entryDy=0;exitX=0.934;exitY=0.511;exitDx=0;exitDy=0;exitPerimeter=0;" parent="1" source="opugYcU80OSQHxM44j0D-4" target="opugYcU80OSQHxM44j0D-12" edge="1">
          <mxGeometry width="50" height="50" relative="1" as="geometry">
            <mxPoint x="202.75" y="280" as="sourcePoint" />
            <mxPoint x="252.75" y="230" as="targetPoint" />
            <Array as="points">
              <mxPoint x="200" y="300" />
              <mxPoint x="190" y="300" />
            </Array>
          </mxGeometry>
        </mxCell>
        <mxCell id="opugYcU80OSQHxM44j0D-27" value="" style="edgeStyle=elbowEdgeStyle;elbow=horizontal;endArrow=classic;html=1;curved=0;rounded=0;endSize=8;startSize=8;entryX=0;entryY=0.25;entryDx=0;entryDy=0;" parent="1" target="opugYcU80OSQHxM44j0D-14" edge="1">
          <mxGeometry width="50" height="50" relative="1" as="geometry">
            <mxPoint x="130" y="300" as="sourcePoint" />
            <mxPoint x="325" y="320" as="targetPoint" />
            <Array as="points">
              <mxPoint x="200" y="340" />
              <mxPoint x="275" y="355" />
            </Array>
          </mxGeometry>
        </mxCell>
        <mxCell id="ncg0RxluqlWPbRokDlwh-43" value="" style="rounded=1;whiteSpace=wrap;html=1;fillColor=#f5f5f5;strokeColor=#666666;fontColor=#333333;" vertex="1" parent="1">
          <mxGeometry x="396.37" y="80" width="140" height="310" as="geometry" />
        </mxCell>
        <mxCell id="ncg0RxluqlWPbRokDlwh-44" value="&lt;b&gt;&lt;font style=&quot;font-size: 16px;&quot;&gt;Silver Layer&lt;/font&gt;&lt;/b&gt;" style="rounded=1;whiteSpace=wrap;html=1;fillColor=#f5f5f5;strokeColor=#666666;fontColor=#333333;" vertex="1" parent="1">
          <mxGeometry x="406.37" y="40" width="120" height="30" as="geometry" />
        </mxCell>
        <mxCell id="ncg0RxluqlWPbRokDlwh-45" value="crm_sales_details" style="rounded=1;whiteSpace=wrap;html=1;fillColor=#f5f5f5;strokeColor=#666666;fontColor=#333333;" vertex="1" parent="1">
          <mxGeometry x="410" y="100" width="120" height="30" as="geometry" />
        </mxCell>
        <mxCell id="ncg0RxluqlWPbRokDlwh-46" value="crm_cust_info" style="rounded=1;whiteSpace=wrap;html=1;fillColor=#f5f5f5;strokeColor=#666666;fontColor=#333333;" vertex="1" parent="1">
          <mxGeometry x="410" y="140" width="120" height="30" as="geometry" />
        </mxCell>
        <mxCell id="ncg0RxluqlWPbRokDlwh-47" value="crm_prod_info" style="rounded=1;whiteSpace=wrap;html=1;fillColor=#f5f5f5;strokeColor=#666666;fontColor=#333333;" vertex="1" parent="1">
          <mxGeometry x="410" y="180" width="120" height="30" as="geometry" />
        </mxCell>
        <mxCell id="ncg0RxluqlWPbRokDlwh-48" value="erp_cust_az12" style="rounded=1;whiteSpace=wrap;html=1;fillColor=#f5f5f5;strokeColor=#666666;fontColor=#333333;" vertex="1" parent="1">
          <mxGeometry x="406.37" y="250" width="120" height="30" as="geometry" />
        </mxCell>
        <mxCell id="ncg0RxluqlWPbRokDlwh-49" value="erp_loc_a101" style="rounded=1;whiteSpace=wrap;html=1;fillColor=#f5f5f5;strokeColor=#666666;fontColor=#333333;" vertex="1" parent="1">
          <mxGeometry x="406.37" y="292.23" width="120" height="30" as="geometry" />
        </mxCell>
        <mxCell id="ncg0RxluqlWPbRokDlwh-50" value="erp_px_cat_g1v2" style="rounded=1;whiteSpace=wrap;html=1;fillColor=#f5f5f5;strokeColor=#666666;fontColor=#333333;" vertex="1" parent="1">
          <mxGeometry x="406.37" y="330" width="120" height="30" as="geometry" />
        </mxCell>
        <mxCell id="ncg0RxluqlWPbRokDlwh-52" value="" style="endArrow=classic;html=1;rounded=0;exitX=1;exitY=0.5;exitDx=0;exitDy=0;" edge="1" parent="1" source="opugYcU80OSQHxM44j0D-8" target="ncg0RxluqlWPbRokDlwh-45">
          <mxGeometry width="50" height="50" relative="1" as="geometry">
            <mxPoint x="400" y="260" as="sourcePoint" />
            <mxPoint x="450" y="210" as="targetPoint" />
          </mxGeometry>
        </mxCell>
        <mxCell id="ncg0RxluqlWPbRokDlwh-54" value="" style="endArrow=classic;html=1;rounded=0;exitX=1;exitY=0.5;exitDx=0;exitDy=0;entryX=0;entryY=0.5;entryDx=0;entryDy=0;" edge="1" parent="1" source="opugYcU80OSQHxM44j0D-9" target="ncg0RxluqlWPbRokDlwh-46">
          <mxGeometry width="50" height="50" relative="1" as="geometry">
            <mxPoint x="380" y="160" as="sourcePoint" />
            <mxPoint x="430" y="160" as="targetPoint" />
          </mxGeometry>
        </mxCell>
        <mxCell id="ncg0RxluqlWPbRokDlwh-55" value="" style="endArrow=classic;html=1;rounded=0;exitX=1;exitY=0.5;exitDx=0;exitDy=0;entryX=0;entryY=0.5;entryDx=0;entryDy=0;" edge="1" parent="1" source="opugYcU80OSQHxM44j0D-10" target="ncg0RxluqlWPbRokDlwh-47">
          <mxGeometry width="50" height="50" relative="1" as="geometry">
            <mxPoint x="620" y="190" as="sourcePoint" />
            <mxPoint x="670" y="190" as="targetPoint" />
          </mxGeometry>
        </mxCell>
        <mxCell id="ncg0RxluqlWPbRokDlwh-56" value="" style="endArrow=classic;html=1;rounded=0;exitX=1;exitY=0.5;exitDx=0;exitDy=0;entryX=0;entryY=0.5;entryDx=0;entryDy=0;" edge="1" parent="1" source="opugYcU80OSQHxM44j0D-12" target="ncg0RxluqlWPbRokDlwh-48">
          <mxGeometry width="50" height="50" relative="1" as="geometry">
            <mxPoint x="380" y="190" as="sourcePoint" />
            <mxPoint x="400" y="265" as="targetPoint" />
          </mxGeometry>
        </mxCell>
        <mxCell id="ncg0RxluqlWPbRokDlwh-57" value="" style="endArrow=classic;html=1;rounded=0;exitX=1;exitY=0.5;exitDx=0;exitDy=0;entryX=0;entryY=0.5;entryDx=0;entryDy=0;" edge="1" parent="1" source="opugYcU80OSQHxM44j0D-13" target="ncg0RxluqlWPbRokDlwh-49">
          <mxGeometry width="50" height="50" relative="1" as="geometry">
            <mxPoint x="360" y="290" as="sourcePoint" />
            <mxPoint x="406" y="290" as="targetPoint" />
          </mxGeometry>
        </mxCell>
        <mxCell id="ncg0RxluqlWPbRokDlwh-58" value="" style="endArrow=classic;html=1;rounded=0;exitX=1;exitY=0.5;exitDx=0;exitDy=0;entryX=0;entryY=0.5;entryDx=0;entryDy=0;" edge="1" parent="1" source="opugYcU80OSQHxM44j0D-14" target="ncg0RxluqlWPbRokDlwh-50">
          <mxGeometry width="50" height="50" relative="1" as="geometry">
            <mxPoint x="380" y="260" as="sourcePoint" />
            <mxPoint x="426" y="260" as="targetPoint" />
          </mxGeometry>
        </mxCell>
        <mxCell id="ncg0RxluqlWPbRokDlwh-59" value="" style="endArrow=classic;html=1;rounded=0;" edge="1" parent="1" target="opugYcU80OSQHxM44j0D-13">
          <mxGeometry width="50" height="50" relative="1" as="geometry">
            <mxPoint x="120" y="300" as="sourcePoint" />
            <mxPoint x="430" y="220" as="targetPoint" />
          </mxGeometry>
        </mxCell>
        <mxCell id="ncg0RxluqlWPbRokDlwh-67" value="" style="rounded=1;whiteSpace=wrap;html=1;fillColor=#ffe6cc;strokeColor=#d79b00;" vertex="1" parent="1">
          <mxGeometry x="570" y="80" width="140" height="310" as="geometry" />
        </mxCell>
        <mxCell id="ncg0RxluqlWPbRokDlwh-68" value="&lt;b&gt;&lt;font style=&quot;font-size: 16px;&quot;&gt;Gold Layer&lt;/font&gt;&lt;/b&gt;" style="rounded=1;whiteSpace=wrap;html=1;fillColor=#ffe6cc;strokeColor=#d79b00;" vertex="1" parent="1">
          <mxGeometry x="580" y="40" width="120" height="30" as="geometry" />
        </mxCell>
        <mxCell id="ncg0RxluqlWPbRokDlwh-69" value="fact_sales" style="rounded=1;whiteSpace=wrap;html=1;fillColor=#ffe6cc;strokeColor=#d79b00;" vertex="1" parent="1">
          <mxGeometry x="580" y="100" width="120" height="30" as="geometry" />
        </mxCell>
        <mxCell id="ncg0RxluqlWPbRokDlwh-70" value="dim_customers" style="rounded=1;whiteSpace=wrap;html=1;fillColor=#ffe6cc;strokeColor=#d79b00;" vertex="1" parent="1">
          <mxGeometry x="580" y="170" width="120" height="30" as="geometry" />
        </mxCell>
        <mxCell id="ncg0RxluqlWPbRokDlwh-71" value="dim_products" style="rounded=1;whiteSpace=wrap;html=1;fillColor=#ffe6cc;strokeColor=#d79b00;" vertex="1" parent="1">
          <mxGeometry x="580" y="240" width="120" height="30" as="geometry" />
        </mxCell>
        <mxCell id="ncg0RxluqlWPbRokDlwh-75" value="" style="endArrow=classic;html=1;rounded=0;" edge="1" parent="1" source="ncg0RxluqlWPbRokDlwh-50" target="ncg0RxluqlWPbRokDlwh-71">
          <mxGeometry width="50" height="50" relative="1" as="geometry">
            <mxPoint x="680" y="420" as="sourcePoint" />
            <mxPoint x="730" y="370" as="targetPoint" />
            <Array as="points">
              <mxPoint x="540" y="340" />
            </Array>
          </mxGeometry>
        </mxCell>
        <mxCell id="ncg0RxluqlWPbRokDlwh-76" value="" style="endArrow=classic;html=1;rounded=0;exitX=1;exitY=0.75;exitDx=0;exitDy=0;" edge="1" parent="1" source="ncg0RxluqlWPbRokDlwh-45" target="ncg0RxluqlWPbRokDlwh-69">
          <mxGeometry width="50" height="50" relative="1" as="geometry">
            <mxPoint x="680" y="420" as="sourcePoint" />
            <mxPoint x="730" y="370" as="targetPoint" />
          </mxGeometry>
        </mxCell>
        <mxCell id="ncg0RxluqlWPbRokDlwh-77" value="" style="endArrow=classic;html=1;rounded=0;exitX=1;exitY=0.5;exitDx=0;exitDy=0;" edge="1" parent="1" source="ncg0RxluqlWPbRokDlwh-46" target="ncg0RxluqlWPbRokDlwh-70">
          <mxGeometry width="50" height="50" relative="1" as="geometry">
            <mxPoint x="680" y="420" as="sourcePoint" />
            <mxPoint x="730" y="370" as="targetPoint" />
          </mxGeometry>
        </mxCell>
        <mxCell id="ncg0RxluqlWPbRokDlwh-78" value="" style="endArrow=classic;html=1;rounded=0;exitX=1;exitY=0.5;exitDx=0;exitDy=0;entryX=0;entryY=0.75;entryDx=0;entryDy=0;" edge="1" parent="1" source="ncg0RxluqlWPbRokDlwh-49" target="ncg0RxluqlWPbRokDlwh-70">
          <mxGeometry width="50" height="50" relative="1" as="geometry">
            <mxPoint x="680" y="420" as="sourcePoint" />
            <mxPoint x="730" y="370" as="targetPoint" />
          </mxGeometry>
        </mxCell>
        <mxCell id="ncg0RxluqlWPbRokDlwh-79" value="" style="endArrow=classic;html=1;rounded=0;exitX=1;exitY=0.5;exitDx=0;exitDy=0;" edge="1" parent="1" source="ncg0RxluqlWPbRokDlwh-48">
          <mxGeometry width="50" height="50" relative="1" as="geometry">
            <mxPoint x="680" y="420" as="sourcePoint" />
            <mxPoint x="590" y="180" as="targetPoint" />
          </mxGeometry>
        </mxCell>
        <mxCell id="ncg0RxluqlWPbRokDlwh-80" value="" style="endArrow=classic;html=1;rounded=0;exitX=1;exitY=0.5;exitDx=0;exitDy=0;entryX=0;entryY=0.5;entryDx=0;entryDy=0;" edge="1" parent="1" source="ncg0RxluqlWPbRokDlwh-47" target="ncg0RxluqlWPbRokDlwh-71">
          <mxGeometry width="50" height="50" relative="1" as="geometry">
            <mxPoint x="680" y="420" as="sourcePoint" />
            <mxPoint x="730" y="370" as="targetPoint" />
          </mxGeometry>
        </mxCell>
      </root>
    </mxGraphModel>
  </diagram>
</mxfile>
